<svg width="154" height="217" viewBox="0 0 154 217" fill="none" xmlns="http://www.w3.org/2000/svg">
<rect width="154" height="189" rx="25" fill="#FFF8D9"/>
<rect x="27" y="182" width="21" height="24" fill="#FFF8D9"/>
<rect x="106" y="182" width="21" height="24" fill="#FFF8D9"/>
<rect x="33" y="194" width="10" height="23" fill="#FFF8D9"/>
<rect x="112" y="194" width="10" height="23" fill="#FFF8D9"/>
<path d="M118.611 104.239C96.1899 133.784 67.0916 98.8222 29.4874 68.0076C25.6492 64.8625 20 67.6355 20 72.5977V155.334C20 158.079 21.8623 160.473 24.5224 161.149L79.4494 175.106C80.4654 175.364 81.5313 175.352 82.5409 175.07L132.114 161.225C134.707 160.501 136.5 158.138 136.5 155.446V107.979C136.5 100.926 122.875 98.6207 118.611 104.239Z" fill="#EBA83A"/>
<path d="M73.75 111.625H57.3125L54.1875 121H44.2188L61.1562 75.5H69.8438L86.875 121H76.9062L73.75 111.625ZM59.8438 104.031H71.2188L65.5 87L59.8438 104.031ZM108.094 105.156H90.5V97.875H108.094V105.156Z" fill="#BB371A"/>
</svg>
