<svg width="154" height="217" viewBox="0 0 154 217" fill="none" xmlns="http://www.w3.org/2000/svg">
<rect width="154" height="189" rx="25" fill="#FFF8D9"/>
<rect x="27" y="182" width="21" height="24" fill="#FFF8D9"/>
<rect x="106" y="182" width="21" height="24" fill="#FFF8D9"/>
<rect x="33" y="194" width="10" height="23" fill="#FFF8D9"/>
<rect x="112" y="194" width="10" height="23" fill="#FFF8D9"/>
<path d="M118.611 104.239C96.1899 133.784 67.0916 98.8222 29.4874 68.0076C25.6492 64.8625 20 67.6355 20 72.5977V155.334C20 158.079 21.8623 160.473 24.5224 161.149L79.4494 175.106C80.4654 175.364 81.5313 175.352 82.5409 175.07L132.114 161.225C134.707 160.501 136.5 158.138 136.5 155.446V107.979C136.5 100.926 122.875 98.6207 118.611 104.239Z" fill="#EBA83A"/>
<path d="M53.0312 109.797H38.6484L35.9141 118H27.1914L42.0117 78.1875H49.6133L64.5156 118H55.793L53.0312 109.797ZM40.8633 103.152H50.8164L45.8125 88.25L40.8633 103.152ZM68.2344 118V78.1875H82.1797C87.0104 78.1875 90.6745 79.1172 93.1719 80.9766C95.6693 82.8177 96.918 85.5247 96.918 89.0977C96.918 91.0482 96.4167 92.7708 95.4141 94.2656C94.4115 95.7422 93.0169 96.8268 91.2305 97.5195C93.2721 98.0299 94.8763 99.0599 96.043 100.609C97.2279 102.159 97.8203 104.055 97.8203 106.297C97.8203 110.125 96.599 113.023 94.1562 114.992C91.7135 116.961 88.2318 117.964 83.7109 118H68.2344ZM76.4375 100.664V111.41H83.4648C85.3971 111.41 86.901 110.954 87.9766 110.043C89.0703 109.113 89.6172 107.837 89.6172 106.215C89.6172 102.569 87.7305 100.719 83.957 100.664H76.4375ZM76.4375 94.8672H82.5078C86.6458 94.7943 88.7148 93.1445 88.7148 89.918C88.7148 88.1133 88.1862 86.819 87.1289 86.0352C86.0898 85.2331 84.4401 84.832 82.1797 84.832H76.4375V94.8672ZM119.422 95.7148H129.293V102.852H119.422V114.008H111.902V102.852H102.004V95.7148H111.902V85.0234H119.422V95.7148Z" fill="#BB371A"/>
</svg>
