<svg width="154" height="217" viewBox="0 0 154 217" fill="none" xmlns="http://www.w3.org/2000/svg">
<rect width="154" height="189" rx="25" fill="#FFF8D9"/>
<rect x="27" y="182" width="21" height="24" fill="#FFF8D9"/>
<rect x="106" y="182" width="21" height="24" fill="#FFF8D9"/>
<rect x="33" y="194" width="10" height="23" fill="#FFF8D9"/>
<rect x="112" y="194" width="10" height="23" fill="#FFF8D9"/>
<path d="M118.611 104.239C96.1899 133.784 67.0916 98.8222 29.4874 68.0076C25.6492 64.8625 20 67.6355 20 72.5977V155.334C20 158.079 21.8623 160.473 24.5224 161.149L79.4494 175.106C80.4654 175.364 81.5313 175.352 82.5409 175.07L132.114 161.225C134.707 160.501 136.5 158.138 136.5 155.446V107.979C136.5 100.926 122.875 98.6207 118.611 104.239Z" fill="#EBA83A"/>
<path d="M58.0312 109.797H43.6484L40.9141 118H32.1914L47.0117 78.1875H54.6133L69.5156 118H60.793L58.0312 109.797ZM45.8633 103.152H55.8164L50.8125 88.25L45.8633 103.152ZM73.2344 118V78.1875H87.1797C92.0104 78.1875 95.6745 79.1172 98.1719 80.9766C100.669 82.8177 101.918 85.5247 101.918 89.0977C101.918 91.0482 101.417 92.7708 100.414 94.2656C99.4115 95.7422 98.0169 96.8268 96.2305 97.5195C98.2721 98.0299 99.8763 99.0599 101.043 100.609C102.228 102.159 102.82 104.055 102.82 106.297C102.82 110.125 101.599 113.023 99.1562 114.992C96.7135 116.961 93.2318 117.964 88.7109 118H73.2344ZM81.4375 100.664V111.41H88.4648C90.3971 111.41 91.901 110.954 92.9766 110.043C94.0703 109.113 94.6172 107.837 94.6172 106.215C94.6172 102.569 92.7305 100.719 88.957 100.664H81.4375ZM81.4375 94.8672H87.5078C91.6458 94.7943 93.7148 93.1445 93.7148 89.918C93.7148 88.1133 93.1862 86.819 92.1289 86.0352C91.0898 85.2331 89.4401 84.832 87.1797 84.832H81.4375V94.8672ZM123.848 104.137H108.453V97.7656H123.848V104.137Z" fill="#BB371A"/>
</svg>
