<svg width="154" height="217" viewBox="0 0 154 217" fill="none" xmlns="http://www.w3.org/2000/svg">
<rect width="154" height="189" rx="25" fill="#FFF8D9"/>
<rect x="27" y="182" width="21" height="24" fill="#FFF8D9"/>
<rect x="106" y="182" width="21" height="24" fill="#FFF8D9"/>
<rect x="33" y="194" width="10" height="23" fill="#FFF8D9"/>
<rect x="112" y="194" width="10" height="23" fill="#FFF8D9"/>
<path d="M118.611 104.239C96.1899 133.784 67.0916 98.8222 29.4874 68.0076C25.6492 64.8625 20 67.6355 20 72.5977V155.334C20 158.079 21.8623 160.473 24.5224 161.149L79.4494 175.106C80.4654 175.364 81.5313 175.352 82.5409 175.07L132.114 161.225C134.707 160.501 136.5 158.138 136.5 155.446V107.979C136.5 100.926 122.875 98.6207 118.611 104.239Z" fill="#EBA83A"/>
<path d="M48.0625 121V75.5H64C69.5208 75.5 73.7083 76.5625 76.5625 78.6875C79.4167 80.7917 80.8438 83.8854 80.8438 87.9688C80.8438 90.1979 80.2708 92.1667 79.125 93.875C77.9792 95.5625 76.3854 96.8021 74.3438 97.5938C76.6771 98.1771 78.5104 99.3542 79.8438 101.125C81.1979 102.896 81.875 105.062 81.875 107.625C81.875 112 80.4792 115.312 77.6875 117.562C74.8958 119.812 70.9167 120.958 65.75 121H48.0625ZM57.4375 101.188V113.469H65.4688C67.6771 113.469 69.3958 112.948 70.625 111.906C71.875 110.844 72.5 109.385 72.5 107.531C72.5 103.365 70.3438 101.25 66.0312 101.188H57.4375ZM57.4375 94.5625H64.375C69.1042 94.4792 71.4688 92.5938 71.4688 88.9062C71.4688 86.8438 70.8646 85.3646 69.6562 84.4688C68.4688 83.5521 66.5833 83.0938 64 83.0938H57.4375V94.5625ZM105.906 105.156H88.3125V97.875H105.906V105.156Z" fill="#BB371A"/>
</svg>
