<svg width="150" height="150" viewBox="0 0 150 150" fill="none" xmlns="http://www.w3.org/2000/svg">
<path d="M78.2019 1.72815C76.6875 -0.57605 73.3122 -0.57605 71.7979 1.72815C64.4731 12.8736 47.1226 40.5562 47.1226 52.7027C47.1226 68.0991 59.6036 80.5801 75 80.5801C90.3964 80.5801 102.877 68.0991 102.877 52.7027C102.877 40.5562 85.5267 12.8736 78.2019 1.72815ZM82.0406 53.3083H79.3943V55.9546C79.3943 58.3816 77.4267 60.3492 74.9997 60.3492C72.5728 60.3492 70.6052 58.3816 70.6052 55.9546V53.3083H67.9588C65.5318 53.3083 63.5643 51.3407 63.5643 48.9137C63.5643 46.4868 65.5318 44.5192 67.9588 44.5192H70.6052V41.8731C70.6052 39.4461 72.5728 37.4786 74.9997 37.4786C77.4267 37.4786 79.3943 39.4461 79.3943 41.8731V44.5192H82.0404C84.4673 44.5192 86.4349 46.4868 86.4349 48.9137C86.4352 51.3407 84.4676 53.3083 82.0406 53.3083Z" fill="#FFF8D9"/>
<path d="M134.057 79.4686L105.2 108.325C104.22 110.691 102.785 112.822 101.002 114.606C97.5042 118.104 92.6754 120.27 87.3504 120.27L69.7105 120.27C67.1133 120.27 65.008 118.164 65.008 115.567C65.008 112.97 67.1133 110.864 69.7105 110.865H87.3504C92.8152 110.865 97.2607 106.418 97.2604 100.954C97.2821 99.3882 96.0176 98.1076 94.4514 98.1097L56.5295 98.1583C49.0641 98.1583 41.9045 101.124 36.6255 106.403L0 141.866V150H33.6399L45.5989 138.041L93.6411 137.695C99.1952 137.655 104.51 135.431 108.438 131.503L147.265 92.6763C150.912 89.0291 150.912 83.1161 147.265 79.4689C143.618 75.8218 137.704 75.8218 134.057 79.4686Z" fill="#FFF8D9"/>
</svg>
