<svg width="35" height="45" viewBox="0 0 35 45" fill="none" xmlns="http://www.w3.org/2000/svg">
<path d="M15.6439 34.1016V29.707H11.2247C10.2484 29.707 9.45707 28.9201 9.45707 27.9492C9.45707 26.9783 10.2484 26.1914 11.2247 26.1914H15.6439V21.7969C15.6439 20.826 16.4353 20.0391 17.4116 20.0391C18.388 20.0391 19.1793 20.826 19.1793 21.7969V26.1914H23.5985C24.5748 26.1914 25.3662 26.9783 25.3662 27.9492C25.3662 28.9201 24.5748 29.707 23.5985 29.707H19.1793V34.1016C19.1793 35.0725 18.388 35.8594 17.4116 35.8594C16.4353 35.8594 15.6439 35.0725 15.6439 34.1016ZM26.7886 10.2887C22.8455 4.97372 18.9673 0.748444 18.804 0.570946C18.4691 0.207024 17.9958 0 17.5 0C17.0042 0 16.5309 0.207024 16.196 0.570946C16.0327 0.748444 12.1545 4.97406 8.21141 10.2887C2.76268 17.6331 0 23.2807 0 27.0755V27.5561C0 37.1746 7.85028 45 17.5 45C20.4978 45 23.4566 44.231 26.0563 42.776C26.9074 42.2998 27.2088 41.2279 26.7299 40.382C26.251 39.536 25.1735 39.236 24.3225 39.7121C22.251 40.8715 19.8919 41.4844 17.5 41.4844C9.7999 41.4844 3.53535 35.2362 3.53535 27.5558V27.0755C3.53535 24.1373 6.19999 18.9253 11.0387 12.3998C13.522 9.05033 16.031 6.08986 17.5003 4.40895C18.9649 6.08471 21.4631 9.03248 23.9437 12.3761C28.7935 18.913 31.4646 24.1335 31.4646 27.0755V27.5561C31.4646 29.8282 30.934 31.9942 29.8875 33.9931C29.4367 34.8541 29.7733 35.9157 30.6392 36.3641C31.5047 36.8121 32.5726 36.4777 33.0234 35.6166C34.3164 33.1464 35 30.3593 35 27.5558V27.0755C35 23.2807 32.2373 17.6331 26.7886 10.2887Z" fill="#BB371A"/>
</svg>
