<svg width="150" height="150" viewBox="0 0 150 150" fill="none" xmlns="http://www.w3.org/2000/svg">
<path d="M150 84.75C150 76.9063 144.694 70.35 137.5 68.2938V51.0312C137.5 15.9687 105.1 0 75 0C44.9 0 12.5 15.9687 12.5 51.0312V68.3C5.30625 70.3563 0 76.9125 0 84.7562C0 93.55 6.65625 100.731 15.1812 101.744C22.2375 125.712 43.1875 150 75 150C106.794 150 127.744 125.731 134.819 101.737C143.344 100.725 150 93.5438 150 84.75V84.75ZM113.156 111.894C111.819 110.975 110.456 110.119 109.069 109.3L122.362 99.7C120.819 104.487 118.637 109.262 115.806 113.725L113.156 111.894ZM34.1812 113.719C31.35 109.256 29.1688 104.481 27.625 99.6938L40.925 109.3C39.5437 110.113 38.175 110.969 36.8437 111.888L34.1812 113.719ZM50.2937 104.737C50.075 104.494 49.9 104.213 49.6188 104.013L25.175 86.3563C25.1125 85.2438 25 84.1437 25 83.0125V61.225L28.3625 60.475C40.475 57.7812 51.55 51.425 59.9875 42.3875C72.225 51.5313 86.6 57.2437 101.844 58.9875L125 61.6375V83.0125C125 84.1437 124.888 85.2437 124.825 86.3625L100.381 104.019C100.1 104.219 99.9313 104.5 99.7063 104.75C83.8813 98.5313 66.1125 98.5312 50.2937 104.737V104.737Z" fill="#FFF8D9"/>
<path d="M46.875 87.5C52.0527 87.5 56.25 83.3027 56.25 78.125C56.25 72.9473 52.0527 68.75 46.875 68.75C41.6973 68.75 37.5 72.9473 37.5 78.125C37.5 83.3027 41.6973 87.5 46.875 87.5Z" fill="#FFF8D9"/>
<path d="M103.125 87.5C108.303 87.5 112.5 83.3027 112.5 78.125C112.5 72.9473 108.303 68.75 103.125 68.75C97.9473 68.75 93.75 72.9473 93.75 78.125C93.75 83.3027 97.9473 87.5 103.125 87.5Z" fill="#FFF8D9"/>
</svg>
