<svg width="38" height="38" viewBox="0 0 38 38" fill="none" xmlns="http://www.w3.org/2000/svg">
<path d="M18.9998 1.78125C15.6718 1.80228 12.4885 3.14447 10.1502 5.51254C7.81186 7.88061 6.51 11.0806 6.53101 14.4085C6.53101 25.3133 18.9998 36.2188 18.9998 36.2188C18.9998 36.2188 31.4685 25.3133 31.4685 14.4085C31.4895 11.0806 30.1877 7.88061 27.8493 5.51254C25.511 3.14447 22.3277 1.80228 18.9998 1.78125ZM18.9998 24.9375C16.886 24.9375 14.8197 24.3107 13.0621 23.1363C11.3046 21.962 9.93471 20.2928 9.1258 18.3399C8.31689 16.387 8.10524 14.2381 8.51762 12.165C8.93 10.0918 9.94788 8.18747 11.4426 6.6928C12.9372 5.19812 14.8416 4.18024 16.9147 3.76786C18.9879 3.35548 21.1368 3.56713 23.0897 4.37604C25.0426 5.18495 26.7117 6.55479 27.8861 8.31234C29.0605 10.0699 29.6873 12.1362 29.6873 14.25C29.684 17.0835 28.5569 19.8 26.5533 21.8036C24.5497 23.8071 21.8333 24.9342 18.9998 24.9375Z" fill="#EBA83A"/>
<path d="M18.9995 4.75C17.1206 4.75 15.2839 5.30717 13.7216 6.35104C12.1593 7.39491 10.9417 8.87861 10.2227 10.6145C9.50363 12.3504 9.3155 14.2605 9.68206 16.1034C10.0486 17.9462 10.9534 19.6389 12.282 20.9675C13.6106 22.2961 15.3033 23.2009 17.1462 23.5675C18.989 23.934 20.8991 23.7459 22.635 23.0269C24.3709 22.3078 25.8546 21.0902 26.8985 19.5279C27.9423 17.9656 28.4995 16.1289 28.4995 14.25C28.4965 11.7314 27.4947 9.31673 25.7137 7.53578C23.9328 5.75483 21.5182 4.75299 18.9995 4.75ZM25.5308 16.0312H20.7808V20.7812H17.2183V16.0312H12.4683V12.4688H17.2183V7.71875H20.7808V12.4688H25.5308V16.0312Z" fill="#EBA83A"/>
</svg>
