<svg width="154" height="217" viewBox="0 0 154 217" fill="none" xmlns="http://www.w3.org/2000/svg">
<rect width="154" height="189" rx="25" fill="#FFF8D9"/>
<rect x="27" y="182" width="21" height="24" fill="#FFF8D9"/>
<rect x="106" y="182" width="21" height="24" fill="#FFF8D9"/>
<rect x="33" y="194" width="10" height="23" fill="#FFF8D9"/>
<rect x="112" y="194" width="10" height="23" fill="#FFF8D9"/>
<path d="M118.611 104.239C96.1899 133.784 67.0916 98.8222 29.4874 68.0076C25.6492 64.8625 20 67.6355 20 72.5977V155.334C20 158.079 21.8623 160.473 24.5224 161.149L79.4494 175.106C80.4654 175.364 81.5313 175.352 82.5409 175.07L132.114 161.225C134.707 160.501 136.5 158.138 136.5 155.446V107.979C136.5 100.926 122.875 98.6207 118.611 104.239Z" fill="#EBA83A"/>
<path d="M85.4375 99.2812C85.4375 103.76 84.6458 107.688 83.0625 111.062C81.4792 114.438 79.2083 117.042 76.25 118.875C73.3125 120.708 69.9375 121.625 66.125 121.625C62.3542 121.625 58.9896 120.719 56.0312 118.906C53.0729 117.094 50.7812 114.51 49.1562 111.156C47.5312 107.781 46.7083 103.906 46.6875 99.5312V97.2812C46.6875 92.8021 47.4896 88.8646 49.0938 85.4688C50.7188 82.0521 53 79.4375 55.9375 77.625C58.8958 75.7917 62.2708 74.875 66.0625 74.875C69.8542 74.875 73.2188 75.7917 76.1562 77.625C79.1146 79.4375 81.3958 82.0521 83 85.4688C84.625 88.8646 85.4375 92.7917 85.4375 97.25V99.2812ZM75.9375 97.2188C75.9375 92.4479 75.0833 88.8229 73.375 86.3438C71.6667 83.8646 69.2292 82.625 66.0625 82.625C62.9167 82.625 60.4896 83.8542 58.7812 86.3125C57.0729 88.75 56.2083 92.3333 56.1875 97.0625V99.2812C56.1875 103.927 57.0417 107.531 58.75 110.094C60.4583 112.656 62.9167 113.938 66.125 113.938C69.2708 113.938 71.6875 112.708 73.375 110.25C75.0625 107.771 75.9167 104.167 75.9375 99.4375V97.2188ZM109.219 105.156H91.625V97.875H109.219V105.156Z" fill="#BB371A"/>
</svg>
