<svg width="71" height="71" viewBox="0 0 71 71" fill="none" xmlns="http://www.w3.org/2000/svg">
<g clip-path="url(#clip0)">
<path d="M45.1146 71H2.21875C0.994 71 0 70.006 0 68.7812V58.4271C0 52.3122 4.97888 47.3333 11.0938 47.3333H36.2396C42.3545 47.3333 47.3333 52.3122 47.3333 58.4271V68.7812C47.3333 70.006 46.3393 71 45.1146 71Z" fill="#EBA83A"/>
<path d="M51.7708 62.125H45.1146C43.4786 62.125 42.1562 60.8026 42.1562 59.1667C42.1562 57.5307 43.4786 56.2084 45.1146 56.2084H51.7708C53.4038 56.2084 54.7292 54.883 54.7292 53.25V31.0625C54.7292 29.4295 56.0515 28.1042 57.6875 28.1042C59.3235 28.1042 60.6458 29.4295 60.6458 31.0625V53.25C60.6458 58.1431 56.6639 62.125 51.7708 62.125Z" fill="#EBA83A"/>
<path d="M65.8229 0H49.5521C46.6973 0 44.375 2.32229 44.375 5.17708V19.2292C44.375 26.5688 50.3479 32.5417 57.6875 32.5417C65.0271 32.5417 71 26.5688 71 19.2292V5.17708C71 2.32229 68.6777 0 65.8229 0ZM62.8646 17.0104H59.9062V19.9688C59.9062 21.1935 58.9122 22.1875 57.6875 22.1875C56.4627 22.1875 55.4687 21.1935 55.4687 19.9688V17.0104H52.5104C51.2857 17.0104 50.2917 16.0164 50.2917 14.7917C50.2917 13.5669 51.2857 12.5729 52.5104 12.5729H55.4687V9.61458C55.4687 8.38983 56.4627 7.39583 57.6875 7.39583C58.9122 7.39583 59.9062 8.38983 59.9062 9.61458V12.5729H62.8646C64.0893 12.5729 65.0833 13.5669 65.0833 14.7917C65.0833 16.0164 64.0893 17.0104 62.8646 17.0104Z" fill="#EBA83A"/>
<path d="M10.6504 25.4417C10.6504 25.3825 10.6504 25.2938 10.68 25.2346C11.9816 19.2588 17.3066 14.7917 23.6671 14.7917C30.0571 14.7917 35.4116 19.3179 36.6837 25.3234C36.6837 25.3529 36.7133 25.4121 36.7133 25.4417C36.6837 25.4417 36.6246 25.4713 36.595 25.4713C31.625 26.8025 28.4004 21.3888 28.2821 21.1521C28.0454 20.7675 27.6608 20.5013 27.2171 20.4421C26.7733 20.3829 26.3296 20.5013 25.9746 20.8267C19.7029 26.6546 11.3308 25.5304 10.6504 25.4417V25.4417Z" fill="#EBA83A"/>
<path d="M34.9674 28.6367C30.9737 28.6367 28.1337 25.8559 26.7137 24.0809C19.9687 29.3763 12.0108 28.6071 10.3837 28.4C10.3541 28.8438 10.3837 29.258 10.4428 29.6721C11.2416 36.2692 16.8624 41.4167 23.6666 41.4167C30.5003 41.4167 36.1508 36.2396 36.8903 29.5834C36.9495 29.1988 36.9791 28.8142 36.9495 28.4C36.2691 28.5775 35.6183 28.6367 34.9674 28.6367V28.6367Z" fill="#EBA83A"/>
</g>
<defs>
<clipPath id="clip0">
<rect width="71" height="71" fill="white"/>
</clipPath>
</defs>
</svg>
