<svg width="19" height="25" viewBox="0 0 19 25" fill="none" xmlns="http://www.w3.org/2000/svg">
<path d="M6.34276 8.30924C2.87469 10.2948 8.16473 20.1252 11.9614 17.954L15.4814 23.9934C13.8785 24.9105 12.5265 25.4875 10.6699 24.4362C5.51538 21.5165 -0.158073 11.7832 0.00336705 5.97804C0.0581413 3.9611 1.26029 3.16975 2.82568 2.2727C3.49739 3.42687 5.66818 7.15221 6.34276 8.30924ZM7.79572 8.1464C7.42095 8.36067 6.93951 8.23496 6.72042 7.86072L3.40513 2.16699C3.18892 1.7956 3.31577 1.31851 3.69342 1.10138L5.43755 0.10434C5.81232 -0.109924 6.29376 0.0157776 6.51285 0.390026L9.83102 6.08375C10.0472 6.45514 9.92039 6.93224 9.54273 7.1465L7.79572 8.1464ZM16.8594 23.702C16.4846 23.9163 16.0032 23.7906 15.7841 23.4163L12.4688 17.7226C12.2526 17.3512 12.3795 16.8741 12.7571 16.657L14.5012 15.6599C14.876 15.4457 15.3574 15.5714 15.5765 15.9456L18.8947 21.6394C19.1109 22.0107 18.9841 22.4878 18.6064 22.705L16.8594 23.702Z" fill="#EBA83A"/>
</svg>
