<svg width="31" height="44" viewBox="0 0 31 44" fill="none" xmlns="http://www.w3.org/2000/svg">
<path d="M28.8468 7.53478C26.1108 2.92647 21.251 0.111074 15.8468 0.00348047C15.6161 -0.00116016 15.3839 -0.00116016 15.1532 0.00348047C9.74905 0.111074 4.88929 2.92647 2.15317 7.53478C-0.643535 12.2452 -0.720052 17.9033 1.94845 22.6703L13.1278 42.6411C13.1328 42.6499 13.1378 42.6588 13.143 42.6675C13.6349 43.5019 14.516 44 15.5002 44C16.4842 44 17.3654 43.5018 17.8571 42.6675C17.8623 42.6588 17.8674 42.6499 17.8724 42.6411L29.0517 22.6703C31.72 17.9033 31.6435 12.2452 28.8468 7.53478V7.53478ZM15.5 19.9375C12.0042 19.9375 9.16025 17.1618 9.16025 13.75C9.16025 10.3382 12.0042 7.56254 15.5 7.56254C18.9957 7.56254 21.8397 10.3382 21.8397 13.75C21.8397 17.1618 18.9958 19.9375 15.5 19.9375Z" fill="#BB371A"/>
</svg>
