<svg width="17" height="24" viewBox="0 0 17 24" fill="none" xmlns="http://www.w3.org/2000/svg">
<path d="M15.8192 4.10988C14.3188 1.59626 11.6538 0.0605859 8.69019 0.00189844C8.56368 -0.000632812 8.43635 -0.000632812 8.30979 0.00189844C5.34626 0.0605859 2.68123 1.59626 1.18077 4.10988C-0.352906 6.67919 -0.394867 9.76544 1.0685 12.3656L7.19911 23.2588C7.20186 23.2636 7.20461 23.2684 7.20746 23.2732C7.47719 23.7283 7.96039 24 8.50009 24C9.03974 24 9.52294 23.7283 9.79262 23.2732C9.79547 23.2684 9.79822 23.2636 9.80098 23.2588L15.9316 12.3656C17.3949 9.76544 17.3529 6.67919 15.8192 4.10988ZM8.49999 10.875C6.58297 10.875 5.02336 9.361 5.02336 7.50002C5.02336 5.63903 6.58297 4.12502 8.49999 4.12502C10.417 4.12502 11.9766 5.63903 11.9766 7.50002C11.9766 9.361 10.4171 10.875 8.49999 10.875Z" fill="#EBA83A"/>
</svg>
