<svg width="150" height="150" viewBox="0 0 150 150" fill="none" xmlns="http://www.w3.org/2000/svg">
<g clip-path="url(#clip0)">
<path d="M113.929 13H47.0714C38.1954 13 31 20.1696 31 29.0138V118.051C31 126.895 38.1954 134.065 47.0714 134.065H113.929C122.805 134.065 130 126.895 130 118.051V29.0138C130 20.1696 122.805 13 113.929 13Z" fill="#FFF8D9"/>
<path d="M61.8569 129.581H48.3569V144.954H61.8569V129.581Z" fill="#FFF8D9"/>
<path d="M112.643 129.581H99.1431V144.954H112.643V129.581Z" fill="#FFF8D9"/>
<path d="M58.6429 137.267H52.2144V152H58.6429V137.267Z" fill="#FFF8D9"/>
<path d="M109.429 137.267H103V152H109.429V137.267Z" fill="#FFF8D9"/>
<path d="M114.893 51.7534H47.7141C45.5838 51.7534 43.8569 53.4741 43.8569 55.5967V112.5C43.8569 114.258 45.0541 115.791 46.7642 116.224L82.0744 125.165C82.7275 125.33 83.4128 125.322 84.0618 125.142L115.93 116.273C117.597 115.809 118.75 114.296 118.75 112.571V55.5967C118.75 53.4741 117.023 51.7534 114.893 51.7534Z" fill="#EBA83A"/>
</g>
<defs>
<clipPath id="clip0">
<rect width="150" height="150" fill="white"/>
</clipPath>
</defs>
</svg>
