<svg width="45" height="45" viewBox="0 0 45 45" fill="none" xmlns="http://www.w3.org/2000/svg">
<g clip-path="url(#clip0)">
<path d="M22.9688 3.75H20.9062C20.2875 1.59375 18.3 0 15.9375 0C13.575 0 11.5875 1.59375 10.9687 3.75H8.90625C8.1375 3.75 7.5 4.3875 7.5 5.15625V7.96875C7.5 9.76875 8.98125 11.25 10.7812 11.25H21.0938C22.8937 11.25 24.375 9.76875 24.375 7.96875V5.15625C24.375 4.3875 23.7375 3.75 22.9688 3.75Z" fill="#FFF8D9"/>
<path d="M26.7188 5.625H26.25V7.96875C26.25 10.8187 23.9438 13.125 21.0938 13.125H10.7813C7.93125 13.125 5.625 10.8187 5.625 7.96875V5.625H5.15625C2.30625 5.625 0 7.93125 0 10.7812V34.2188C0 37.0687 2.30625 39.375 5.15625 39.375H18.9938L19.4063 37.0688C19.5938 36.0188 20.0813 35.0812 20.8313 34.3125L22.3313 32.8125H7.03125C6.2625 32.8125 5.625 32.175 5.625 31.4062C5.625 30.6375 6.2625 30 7.03125 30H24.8438C24.9375 30 25.0125 30 25.1063 30.0375H25.125L31.875 23.2875V10.7812C31.875 7.93125 29.5688 5.625 26.7188 5.625ZM24.8438 26.7188H7.03125C6.2625 26.7188 5.625 26.0812 5.625 25.3125C5.625 24.5438 6.2625 23.9062 7.03125 23.9062H24.8438C25.6125 23.9062 26.25 24.5438 26.25 25.3125C26.25 26.0812 25.6125 26.7188 24.8438 26.7188ZM24.8438 20.625H7.03125C6.2625 20.625 5.625 19.9875 5.625 19.2188C5.625 18.45 6.2625 17.8125 7.03125 17.8125H24.8438C25.6125 17.8125 26.25 18.45 26.25 19.2188C26.25 19.9875 25.6125 20.625 24.8438 20.625Z" fill="#FFF8D9"/>
<path d="M23.488 44.9999C23.1187 44.9999 22.7587 44.8536 22.4943 44.5874C22.1699 44.263 22.0237 43.8017 22.1043 43.348L23.098 37.7136C23.1468 37.4305 23.2855 37.168 23.488 36.9636L37.4099 23.0436C39.1199 21.3299 40.7999 21.793 41.7187 22.7118L44.038 25.0311C45.3187 26.3099 45.3187 28.3911 44.038 29.6717L30.1162 43.5936C29.9137 43.798 29.6512 43.9349 29.3662 43.9836L23.7318 44.9774C23.6512 44.9924 23.5687 44.9999 23.488 44.9999V44.9999ZM29.1224 42.5999H29.1412H29.1224Z" fill="#FFF8D9"/>
</g>
<defs>
<clipPath id="clip0">
<rect width="45" height="45" fill="white"/>
</clipPath>
</defs>
</svg>
