<svg width="19" height="16" viewBox="0 0 19 16" fill="none" xmlns="http://www.w3.org/2000/svg">
<path d="M17.0297 12.9847C16.9138 12.8664 16.8986 12.6573 16.9841 12.5133C17.4097 11.7993 17.6586 10.9591 17.6586 10.0597C17.6586 7.47189 15.6294 5.36538 13.1366 5.36538C10.6438 5.36538 8.6165 7.47189 8.6165 10.0597C8.6165 12.6474 10.6438 14.752 13.1366 14.752C14.0733 14.752 14.9416 14.4522 15.6636 13.9433C15.7985 13.8486 15.9942 13.8624 16.1082 13.9808L17.6529 15.5843C17.6643 15.5962 17.6757 15.606 17.6871 15.6159C17.7061 15.6317 17.8163 15.7401 17.9303 15.8585L17.9797 15.9098C18.0956 16.0301 18.2818 16.0301 18.3958 15.9098L18.9145 15.3733C19.0285 15.253 19.0285 15.0597 18.9145 14.9413L17.0297 12.9847ZM15.8726 12.247C15.7225 12.4463 15.5553 12.6317 15.3691 12.7954C14.7668 13.3259 13.9878 13.6474 13.1366 13.6474C11.2309 13.6474 9.6805 12.038 9.6805 10.0597C9.6805 8.08136 11.2309 6.46992 13.1366 6.46992C15.0442 6.46992 16.5946 8.07939 16.5946 10.0597C16.5946 10.8821 16.3229 11.6395 15.8726 12.247ZM5.5366 11.3437V0.91568C5.5366 0.748027 5.6544 0.673077 5.7988 0.75L10.0168 2.97288C10.1631 3.0498 10.2809 3.24901 10.2809 3.41667V4.70069C10.2809 4.87032 10.393 4.93935 10.5374 4.87229C10.6818 4.80523 10.8053 4.61982 10.8053 4.45217V3.38314C10.8053 3.21548 10.9231 3.01627 11.0694 2.94132L15.0233 0.886095C15.1696 0.811144 15.2874 0.886095 15.2874 1.05375V4.63363C15.2874 4.80128 15.4052 4.99655 15.5477 5.07939L15.5648 5.08728C15.7054 5.17012 15.8156 5.10897 15.8156 4.93935V0.225345C15.8156 0.0576923 15.6978 -0.0192308 15.5534 0.0576923L10.8053 2.5429C10.6609 2.61982 10.4253 2.61982 10.2809 2.5429L5.5366 0.0576923C5.3903 -0.0192308 5.1547 -0.0192308 5.0103 0.0576923L0.2622 2.5429C0.1178 2.61982 0 2.81706 0 2.98669V14.5232C0 14.6908 0.1178 14.7678 0.2622 14.6908L5.0103 12.2017C5.1547 12.1267 5.3903 12.1267 5.5366 12.2017L8.2802 13.6415C8.4246 13.7184 8.4588 13.6751 8.3619 13.539C8.284 13.4305 8.2099 13.3161 8.1396 13.2017C8.0541 13.0577 7.8736 12.8762 7.7273 12.7993L5.7988 11.7875C5.6544 11.7125 5.5366 11.5133 5.5366 11.3437ZM4.7443 11.7875L0.7923 13.8605C0.646 13.9374 0.5301 13.8624 0.5301 13.6928V3.26282C0.5301 3.09319 0.646 2.89596 0.7923 2.81903L4.7443 0.748027C4.8887 0.673077 5.0065 0.748027 5.0065 0.91568V11.3437C5.0065 11.5133 4.8887 11.7125 4.7443 11.7875Z" fill="#BB371A"/>
</svg>
