<svg width="44" height="44" viewBox="0 0 44 44" fill="none" xmlns="http://www.w3.org/2000/svg">
<g clip-path="url(#clip0)">
<path d="M35.7498 37.5834H30.2498C29.4908 37.5834 28.8748 36.9674 28.8748 36.2084V33.5391C28.8748 32.7929 28.4311 32.1787 28.059 31.7956C26.5043 30.1914 25.8406 28.0024 26.2385 25.7859C26.7335 23.0304 29.0031 20.7662 31.7568 20.2786C33.7881 19.9119 35.8543 20.4637 37.4163 21.7746C38.9801 23.0854 39.8748 25.0049 39.8748 27.0436C39.8748 28.8806 39.1506 30.6057 37.8361 31.9019C37.5116 32.2227 37.1248 32.7397 37.1248 33.3832V36.2102C37.1248 36.9674 36.5088 37.5834 35.7498 37.5834Z" fill="#BB371A"/>
<path d="M42.625 44.0001H23.375C22.616 44.0001 22 43.3841 22 42.6251V39.2023C22 37.5871 23.2082 36.2194 24.8105 36.0196L30.5378 35.3027L35.2917 35.2917L41.1895 36.0177C42.7918 36.2176 44 37.5871 44 39.2023V42.6251C44 43.3841 43.384 44.0001 42.625 44.0001Z" fill="#BB371A"/>
<path d="M22.4585 3.66667H20.4418C19.8368 1.55833 17.8935 0 15.5835 0C13.2735 0 11.3302 1.55833 10.7252 3.66667H8.7085C7.95683 3.66667 7.3335 4.29 7.3335 5.04167V7.79167C7.3335 9.55167 8.78183 11 10.5418 11H20.6252C22.3852 11 23.8335 9.55167 23.8335 7.79167V5.04167C23.8335 4.29 23.2102 3.66667 22.4585 3.66667Z" fill="#BB371A"/>
<path d="M26.125 5.5H25.6667V7.79167C25.6667 10.5783 23.4117 12.8333 20.625 12.8333H10.5417C7.755 12.8333 5.5 10.5783 5.5 7.79167V5.5H5.04167C2.255 5.5 0 7.755 0 10.5417V33.4583C0 36.245 2.255 38.5 5.04167 38.5H18.37C18.6817 35.4933 20.955 33 23.9617 32.45C23.705 32.0467 23.485 31.6067 23.3017 31.1667H6.875C6.12333 31.1667 5.5 30.5433 5.5 29.7917C5.5 29.04 6.12333 28.4167 6.875 28.4167H22.55C22.4033 27.3717 22.4217 26.29 22.605 25.2083H6.875C6.12333 25.2083 5.5 24.585 5.5 23.8333C5.5 23.0817 6.12333 22.4583 6.875 22.4583H23.5217C24.97 19.4883 27.8117 17.2517 31.1117 16.665H31.1667V10.5417C31.1667 7.755 28.9117 5.5 26.125 5.5ZM24.2917 19.25H6.875C6.12333 19.25 5.5 18.6267 5.5 17.875C5.5 17.1233 6.12333 16.5 6.875 16.5H24.2917C25.0433 16.5 25.6667 17.1233 25.6667 17.875C25.6667 18.6267 25.0433 19.25 24.2917 19.25Z" fill="#BB371A"/>
</g>
<defs>
<clipPath id="clip0">
<rect width="44" height="44" fill="white"/>
</clipPath>
</defs>
</svg>
