<svg width="44" height="44" viewBox="0 0 44 44" fill="none" xmlns="http://www.w3.org/2000/svg">
<path d="M43.2228 34.6993L32.8857 25.1951C34.0783 22.8454 34.7604 20.1921 34.7604 17.3761C34.7604 7.7794 26.9801 0 17.3824 0C7.78027 0 0 7.7794 0 17.3761C0 26.9771 7.78027 34.7565 17.3824 34.7565C20.1944 34.7565 22.8436 34.0745 25.1935 32.8865L34.6944 43.2267C35.6229 44.23 37.1675 44.2608 38.1357 43.2971L43.2976 38.1358C44.2613 37.1678 44.2305 35.6233 43.2228 34.6993ZM17.3824 27.9803C11.5252 27.9803 6.78134 23.2326 6.78134 17.3761C6.78134 11.5239 11.5252 6.77618 17.3824 6.77618C23.2352 6.77618 27.9835 11.5239 27.9835 17.3761C27.9835 23.2326 23.2352 27.9803 17.3824 27.9803Z" fill="#BB371A"/>
</svg>
